<?xml version="1.0" standalone="no"?>
<!DOCTYPE svg PUBLIC "-//W3C//DTD SVG 20010904//EN"
 "http://www.w3.org/TR/2001/REC-SVG-20010904/DTD/svg10.dtd">
<svg version="1.0" xmlns="http://www.w3.org/2000/svg"
 width="1155.000000pt" height="600.000000pt" viewBox="0 0 1155.000000 600.000000"
 preserveAspectRatio="xMidYMid meet">

<g transform="translate(0.000000,600.000000) scale(0.100000,-0.100000)"
fill="#000000" stroke="none">
<path d="M2711 2169 c-444 -301 -506 -340 -525 -331 -11 6 -120 77 -241 157
-121 81 -304 202 -406 270 l-187 123 -7 -202 c-3 -110 -5 -364 -3 -562 l3
-362 245 160 c440 286 601 388 612 388 6 0 133 -80 282 -179 527 -347 687
-451 695 -451 4 0 11 136 15 303 4 166 11 464 16 661 6 198 9 361 7 362 -2 2
-230 -150 -506 -337z"/>
<path d="M4680 1865 l0 -445 100 0 100 0 0 445 0 445 -100 0 -100 0 0 -445z"/>
<path d="M6520 1865 l0 -445 105 0 104 0 3 136 3 137 98 -137 98 -136 126 0
c122 0 125 1 112 19 -8 11 -69 85 -137 165 -81 95 -121 150 -116 158 5 7 63
79 129 159 67 80 125 151 129 157 5 9 -24 12 -117 12 l-125 0 -98 -132 -99
-132 -3 242 -2 242 -105 0 -105 0 0 -445z"/>
<path d="M8730 1865 l0 -445 104 0 105 0 3 221 3 221 33 29 c27 24 41 29 85
29 59 0 89 -16 112 -60 12 -23 15 -72 15 -235 l0 -205 106 0 106 0 -5 238 c-4
261 -9 287 -65 353 -50 58 -103 82 -182 83 -78 0 -130 -16 -176 -56 l-34 -30
0 151 0 151 -105 0 -105 0 0 -445z"/>
<path d="M4009 2247 c-86 -30 -142 -69 -191 -134 -51 -68 -79 -141 -85 -230
-11 -136 25 -246 109 -339 187 -204 558 -161 677 78 17 34 31 67 31 75 0 10
-25 13 -109 13 l-109 0 -27 -36 c-72 -94 -230 -97 -307 -6 -44 53 -61 112 -56
196 9 139 83 216 207 216 72 0 105 -15 149 -64 l31 -36 111 0 c111 0 111 0
105 23 -30 97 -125 200 -222 238 -88 34 -227 37 -314 6z"/>
<path d="M5239 2087 c-103 -29 -172 -88 -218 -187 -21 -45 -25 -70 -26 -140 0
-119 22 -179 95 -252 48 -48 68 -60 130 -79 58 -17 87 -21 146 -16 135 10 231
72 286 185 30 61 33 75 33 157 -1 75 -5 99 -26 145 -57 123 -156 189 -295 196
-47 2 -97 -1 -125 -9z m169 -187 c92 -56 94 -226 3 -287 -120 -81 -246 49
-201 206 25 89 121 128 198 81z"/>
<path d="M5971 2079 c-85 -27 -158 -99 -190 -184 -20 -51 -22 -74 -19 -160 5
-115 28 -172 95 -237 63 -61 122 -82 233 -83 109 0 159 17 228 80 38 34 92
123 92 152 0 10 -26 13 -110 13 -70 0 -110 -4 -110 -10 0 -6 -12 -22 -26 -35
-21 -19 -38 -25 -73 -25 -85 0 -121 50 -121 166 0 113 38 164 121 164 41 0 51
-4 78 -35 l30 -35 106 0 c77 0 105 3 105 13 0 30 -51 115 -90 151 -60 54 -119
77 -209 82 -58 3 -91 -1 -140 -17z"/>
<path d="M7444 2080 c-155 -51 -245 -214 -214 -389 21 -119 86 -208 189 -254
36 -17 66 -22 141 -22 110 0 160 18 230 81 34 31 90 117 90 139 0 3 -50 5
-110 5 -90 0 -112 -3 -117 -15 -15 -41 -109 -58 -164 -29 -27 14 -59 65 -59
94 0 6 78 10 230 10 l229 0 6 33 c8 42 -11 150 -35 196 -70 137 -255 204 -416
151z m193 -170 c21 -12 35 -31 41 -52 l8 -33 -124 -3 c-69 -1 -127 0 -130 2
-11 12 24 70 52 87 41 25 112 25 153 -1z"/>
<path d="M8207 2090 c-98 -25 -191 -109 -223 -203 -23 -67 -23 -204 0 -266 52
-141 183 -220 342 -208 146 11 247 90 288 225 7 22 7 22 -103 22 -61 0 -111
-4 -111 -9 0 -4 -12 -20 -26 -35 -22 -21 -36 -26 -76 -26 -41 0 -54 5 -78 28
-65 66 -65 208 0 274 23 23 37 28 76 28 40 0 51 -5 80 -35 l33 -35 106 0 c106
0 106 0 100 23 -27 89 -90 163 -173 199 -51 23 -177 32 -235 18z"/>
</g>
</svg>
