<?xml version="1.0" encoding="UTF-8"?>
<!DOCTYPE svg PUBLIC "-//W3C//DTD SVG 1.1//EN" "http://www.w3.org/Graphics/SVG/1.1/DTD/svg11.dtd">
<svg xmlns="http://www.w3.org/2000/svg" version="1.1" width="1611px" height="300px" style="shape-rendering:geometricPrecision; text-rendering:geometricPrecision; image-rendering:optimizeQuality; fill-rule:evenodd; clip-rule:evenodd" xmlns:xlink="http://www.w3.org/1999/xlink">
<g><path style="opacity:0.897" fill="#000000" d="M 1553.5,-0.5 C 1558.5,-0.5 1563.5,-0.5 1568.5,-0.5C 1592.73,4.9736 1606.73,19.9736 1610.5,44.5C 1610.5,47.5 1610.5,50.5 1610.5,53.5C 1605.36,80.8007 1588.86,95.8007 1561,98.5C 1530.48,95.9848 1513.98,79.4848 1511.5,49C 1513.14,21.8711 1527.14,5.37114 1553.5,-0.5 Z M 1554.5,8.5 C 1582.06,8.22585 1597.72,21.7258 1601.5,49C 1598.67,73.1667 1585.17,86.6667 1561,89.5C 1536.58,86.5787 1523.08,72.912 1520.5,48.5C 1521.14,33.394 1527.8,21.894 1540.5,14C 1545.16,11.8421 1549.83,10.0088 1554.5,8.5 Z M 1552.5,30.5 C 1557.93,30.161 1563.26,30.661 1568.5,32C 1572.5,36.3333 1572.5,40.6667 1568.5,45C 1563.26,46.339 1557.93,46.839 1552.5,46.5C 1552.5,41.1667 1552.5,35.8333 1552.5,30.5 Z"/></g>
<g><path style="opacity:0.971" fill="#000000" d="M -0.5,296.5 C -0.5,295.5 -0.5,294.5 -0.5,293.5C 38.3897,197.368 77.0563,101.035 115.5,4.5C 126.485,3.33425 137.485,3.16758 148.5,4C 187.696,101.254 226.696,198.587 265.5,296C 252.504,296.5 239.504,296.667 226.5,296.5C 217.03,270.09 207.363,243.757 197.5,217.5C 154.162,217.167 110.828,217.5 67.5,218.5C 57.7773,244.278 47.7773,269.945 37.5,295.5C 24.8508,296.499 12.1842,296.832 -0.5,296.5 Z M 131.5,50.5 C 132.497,50.4701 133.164,50.9701 133.5,52C 150.275,96.1633 166.942,140.33 183.5,184.5C 149.165,184.667 114.832,184.5 80.5,184C 97.9962,139.677 114.996,95.1765 131.5,50.5 Z"/></g>
<g><path style="opacity:0.983" fill="#000000" d="M 999.5,18.5 C 1010.83,18.5 1022.17,18.5 1033.5,18.5C 1033.5,40.8333 1033.5,63.1667 1033.5,85.5C 1054.83,85.5 1076.17,85.5 1097.5,85.5C 1097.5,95.5 1097.5,105.5 1097.5,115.5C 1076.17,115.5 1054.83,115.5 1033.5,115.5C 1033.33,155.835 1033.5,196.168 1034,236.5C 1035.59,249.421 1042.43,258.255 1054.5,263C 1068.77,264.43 1083.11,264.93 1097.5,264.5C 1097.5,275.167 1097.5,285.833 1097.5,296.5C 1084.83,296.667 1072.16,296.5 1059.5,296C 1026.18,293.675 1006.35,276.175 1000,243.5C 999.5,200.835 999.333,158.168 999.5,115.5C 984.833,115.5 970.167,115.5 955.5,115.5C 955.5,105.5 955.5,95.5 955.5,85.5C 970.167,85.5 984.833,85.5 999.5,85.5C 999.5,63.1667 999.5,40.8333 999.5,18.5 Z"/></g>
<g><path style="opacity:0.893" fill="#000000" d="M 1546.5,25.5 C 1554.17,25.3336 1561.84,25.5003 1569.5,26C 1575.29,28.0654 1578.29,32.2321 1578.5,38.5C 1577.92,42.8264 1575.92,46.3264 1572.5,49C 1575.18,51.194 1576.68,54.0273 1577,57.5C 1577.5,61.4862 1577.67,65.4862 1577.5,69.5C 1575.5,69.5 1573.5,69.5 1571.5,69.5C 1571.62,64.7682 1571.12,60.1016 1570,55.5C 1569.17,54.6667 1568.33,53.8333 1567.5,53C 1562.51,52.5007 1557.51,52.3341 1552.5,52.5C 1552.5,58.1667 1552.5,63.8333 1552.5,69.5C 1550.5,69.5 1548.5,69.5 1546.5,69.5C 1546.5,54.8333 1546.5,40.1667 1546.5,25.5 Z M 1552.5,30.5 C 1552.5,35.8333 1552.5,41.1667 1552.5,46.5C 1557.93,46.839 1563.26,46.339 1568.5,45C 1572.5,40.6667 1572.5,36.3333 1568.5,32C 1563.26,30.661 1557.93,30.161 1552.5,30.5 Z"/></g>
<g><path style="opacity:0.971" fill="#000000" d="M 398.5,299.5 C 390.167,299.5 381.833,299.5 373.5,299.5C 327.242,292.422 298.075,266.089 286,220.5C 277.262,181.467 284.929,146.133 309,114.5C 327.095,93.8706 349.929,83.0373 377.5,82C 410.312,79.7118 438.479,89.8785 462,112.5C 472.44,124.96 478.94,139.293 481.5,155.5C 470.181,156.666 458.848,156.832 447.5,156C 441.054,134.224 426.721,120.557 404.5,115C 358.177,106.742 330.01,125.575 320,171.5C 315.15,198.249 320.15,222.916 335,245.5C 350.711,263.629 370.544,271.129 394.5,268C 420.485,265.524 438.152,252.191 447.5,228C 458.495,227.5 469.495,227.333 480.5,227.5C 475.321,258.364 458.321,279.864 429.5,292C 419.298,295.635 408.965,298.135 398.5,299.5 Z"/></g>
<g><path style="opacity:0.974" fill="#000000" d="M 623.5,299.5 C 615.5,299.5 607.5,299.5 599.5,299.5C 554.163,292.346 524.663,266.68 511,222.5C 503.517,191.11 506.517,160.777 520,131.5C 544.212,92.3208 579.378,76.1541 625.5,83C 659.407,88.2438 683.574,106.41 698,137.5C 704.861,156.239 707.361,175.573 705.5,195.5C 650.499,195.333 595.499,195.5 540.5,196C 542.19,219.093 551.523,238.426 568.5,254C 588.728,268.736 611.061,272.736 635.5,266C 655.5,260.667 668.167,248 673.5,228C 684.828,227.5 696.162,227.333 707.5,227.5C 703.958,251.758 691.958,270.591 671.5,284C 656.539,292.71 640.539,297.877 623.5,299.5 Z M 595.5,111.5 C 617.671,108.578 637.171,114.245 654,128.5C 664.176,139.859 669.676,153.193 670.5,168.5C 627.828,168.833 585.161,168.5 542.5,167.5C 547.957,137.048 565.624,118.381 595.5,111.5 Z"/></g>
<g><path style="opacity:0.978" fill="#000000" d="M 845.5,81.5 C 893.567,80.9353 921.733,104.269 930,151.5C 930.5,199.832 930.667,248.166 930.5,296.5C 919.167,296.5 907.833,296.5 896.5,296.5C 896.667,252.165 896.5,207.832 896,163.5C 889.984,125.238 867.817,109.072 829.5,115C 806.859,122.309 792.359,137.476 786,160.5C 785.226,164.147 784.559,167.814 784,171.5C 783.5,213.165 783.333,254.832 783.5,296.5C 772.167,296.5 760.833,296.5 749.5,296.5C 749.5,226.167 749.5,155.833 749.5,85.5C 760.833,85.5 772.167,85.5 783.5,85.5C 783.333,97.5046 783.5,109.505 784,121.5C 792.108,104.059 805.275,92.2259 823.5,86C 830.882,84.0241 838.216,82.5241 845.5,81.5 Z"/></g>
<g><path style="opacity:0.971" fill="#000000" d="M 1450.5,299.5 C 1442.5,299.5 1434.5,299.5 1426.5,299.5C 1395.84,296.996 1373.67,281.996 1360,254.5C 1356.9,246.092 1355.06,237.425 1354.5,228.5C 1365.5,228.5 1376.5,228.5 1387.5,228.5C 1389.76,252.262 1402.76,265.762 1426.5,269C 1440.5,271.096 1453.83,269.096 1466.5,263C 1485.45,249.102 1487.45,233.102 1472.5,215C 1467.49,210.995 1461.82,208.328 1455.5,207C 1433.53,203.739 1411.86,199.072 1390.5,193C 1369.05,182.284 1358.71,164.784 1359.5,140.5C 1361.92,110.904 1377.59,92.4037 1406.5,85C 1428.46,79.7826 1450.12,80.7826 1471.5,88C 1497.9,98.6215 1512.23,118.121 1514.5,146.5C 1503.5,146.5 1492.5,146.5 1481.5,146.5C 1480.63,135.934 1475.97,127.434 1467.5,121C 1447.34,108.469 1426.68,107.469 1405.5,118C 1393.22,127.39 1390.06,139.223 1396,153.5C 1401.41,161.462 1408.91,166.295 1418.5,168C 1442.06,170.445 1465.06,175.445 1487.5,183C 1505.74,192.955 1515.24,208.455 1516,229.5C 1517.95,262.768 1503.12,284.601 1471.5,295C 1464.43,296.845 1457.43,298.345 1450.5,299.5 Z"/></g>
<g><path style="opacity:0.973" fill="#000000" d="M 1227.5,299.5 C 1220.5,299.5 1213.5,299.5 1206.5,299.5C 1166.89,292.387 1144.39,268.721 1139,228.5C 1138.5,180.834 1138.33,133.168 1138.5,85.5C 1149.83,85.5 1161.17,85.5 1172.5,85.5C 1172.33,129.501 1172.5,173.501 1173,217.5C 1179.11,256.621 1201.61,272.788 1240.5,266C 1266.68,256.8 1281.51,238.3 1285,210.5C 1285.5,168.835 1285.67,127.168 1285.5,85.5C 1297.17,85.5 1308.83,85.5 1320.5,85.5C 1320.5,155.833 1320.5,226.167 1320.5,296.5C 1308.83,296.5 1297.17,296.5 1285.5,296.5C 1285.67,284.162 1285.5,271.829 1285,259.5C 1277.4,276.903 1264.57,288.736 1246.5,295C 1240.11,296.84 1233.78,298.34 1227.5,299.5 Z"/></g>
</svg>
